<svg xmlns="http://www.w3.org/2000/svg" viewBox="0 0 400 350"><circle cx="200" cy="168" r="138" fill="#fff" opacity=".28"/><g transform="translate(176 46) scale(0.85)"><path d="M20 60 C10 20 40 0 80 6 L140 6 C180 0 210 20 200 60 L214 250 C216 270 200 284 180 284 L40 284 C20 284 4 270 6 250Z" fill="#FFF7E6"/><path d="M60 8 L160 8 L150 36 L70 36Z" fill="#E7D9BD"/><rect x="30" y="110" width="160" height="96" rx="16" fill="#1D2A4A"/><rect x="50" y="134" width="120" height="14" rx="7" fill="#FDC824"/><rect x="50" y="160" width="80" height="12" rx="6" fill="#fff" opacity=".7"/></g><g transform="translate(80 128) scale(0.9)"><rect x="0" y="0" width="150" height="190" rx="10" fill="#C9CED6"/><rect x="0" y="34" width="150" height="122" fill="#E31B1E"/><rect x="0" y="34" width="38" height="122" fill="#fff" opacity=".18"/><circle cx="75" cy="95" r="34" fill="#FDC824"/><circle cx="75" cy="95" r="18" fill="#E85D1F"/><ellipse cx="75" cy="0" rx="75" ry="14" fill="#E1E5EA"/></g></svg>