<svg xmlns="http://www.w3.org/2000/svg" viewBox="0 0 640 480"><ellipse cx="320" cy="420" rx="230" ry="18" fill="#1D2A4A" opacity=".10"/><g transform="translate(0 20) scale(1)"><path d="M90 250 L550 250 L520 380 L120 380Z" fill="#D7B98C"/><path d="M90 250 L550 250 L540 280 L100 280Z" fill="#C9A673"/><ellipse cx="140" cy="200" rx="32" ry="42" fill="#FFF8EC"/><ellipse cx="148" cy="210" rx="24" ry="30" fill="#EFE3CF"/><ellipse cx="129" cy="184" rx="7" ry="11" fill="#fff"/><ellipse cx="214" cy="200" rx="32" ry="42" fill="#FFF8EC"/><ellipse cx="222" cy="210" rx="24" ry="30" fill="#EFE3CF"/><ellipse cx="203" cy="184" rx="7" ry="11" fill="#fff"/><ellipse cx="288" cy="200" rx="32" ry="42" fill="#FFF8EC"/><ellipse cx="296" cy="210" rx="24" ry="30" fill="#EFE3CF"/><ellipse cx="277" cy="184" rx="7" ry="11" fill="#fff"/><ellipse cx="362" cy="200" rx="32" ry="42" fill="#FFF8EC"/><ellipse cx="370" cy="210" rx="24" ry="30" fill="#EFE3CF"/><ellipse cx="351" cy="184" rx="7" ry="11" fill="#fff"/><ellipse cx="436" cy="200" rx="32" ry="42" fill="#FFF8EC"/><ellipse cx="444" cy="210" rx="24" ry="30" fill="#EFE3CF"/><ellipse cx="425" cy="184" rx="7" ry="11" fill="#fff"/><ellipse cx="510" cy="200" rx="32" ry="42" fill="#FFF8EC"/><ellipse cx="518" cy="210" rx="24" ry="30" fill="#EFE3CF"/><ellipse cx="499" cy="184" rx="7" ry="11" fill="#fff"/><ellipse cx="158" cy="236" rx="34" ry="45" fill="#FFF8EC"/><ellipse cx="166" cy="246" rx="25" ry="32" fill="#EFE3CF"/><ellipse cx="147" cy="220" rx="7" ry="11" fill="#fff"/><ellipse cx="232" cy="236" rx="34" ry="45" fill="#FFF8EC"/><ellipse cx="240" cy="246" rx="25" ry="32" fill="#EFE3CF"/><ellipse cx="221" cy="220" rx="7" ry="11" fill="#fff"/><ellipse cx="306" cy="236" rx="34" ry="45" fill="#FFF8EC"/><ellipse cx="314" cy="246" rx="25" ry="32" fill="#EFE3CF"/><ellipse cx="295" cy="220" rx="7" ry="11" fill="#fff"/><ellipse cx="380" cy="236" rx="34" ry="45" fill="#FFF8EC"/><ellipse cx="388" cy="246" rx="25" ry="32" fill="#EFE3CF"/><ellipse cx="369" cy="220" rx="7" ry="11" fill="#fff"/><ellipse cx="454" cy="236" rx="34" ry="45" fill="#FFF8EC"/><ellipse cx="462" cy="246" rx="25" ry="32" fill="#EFE3CF"/><ellipse cx="443" cy="220" rx="7" ry="11" fill="#fff"/><ellipse cx="528" cy="236" rx="34" ry="45" fill="#FFF8EC"/><ellipse cx="536" cy="246" rx="25" ry="32" fill="#EFE3CF"/><ellipse cx="517" cy="220" rx="7" ry="11" fill="#fff"/><path d="M110 300 Q146 340 182 300" stroke="#BF9A66" stroke-width="6" fill="none"/><path d="M182 300 Q218 340 254 300" stroke="#BF9A66" stroke-width="6" fill="none"/><path d="M254 300 Q290 340 326 300" stroke="#BF9A66" stroke-width="6" fill="none"/><path d="M326 300 Q362 340 398 300" stroke="#BF9A66" stroke-width="6" fill="none"/><path d="M398 300 Q434 340 470 300" stroke="#BF9A66" stroke-width="6" fill="none"/><path d="M470 300 Q506 340 542 300" stroke="#BF9A66" stroke-width="6" fill="none"/><path d="M542 300 Q578 340 614 300" stroke="#BF9A66" stroke-width="6" fill="none"/></g></svg>